<svg width="250" height="94" viewBox="0 0 250 94" fill="none" xmlns="http://www.w3.org/2000/svg">
<path d="M67.4481 89.2966C62.729 89.2966 58.9034 85.387 58.9034 80.5631C58.9034 75.7401 62.729 71.8298 67.4481 71.8298C72.1675 71.8298 75.9922 75.7401 75.9922 80.5631C75.9922 85.387 72.1675 89.2966 67.4481 89.2966ZM76.0197 90.4046C76.0197 91.204 77.3898 93.4507 79.0691 93.4507H80.1568C80.5784 93.4507 80.9235 93.1052 80.9235 92.6838V68.7844H80.919C80.8971 68.382 80.5639 68.0594 80.1568 68.0594H76.7868C76.3793 68.0594 76.0464 68.382 76.0235 68.7844H76.0197V70.7266C73.9548 68.1832 70.6995 67.128 67.4348 67.128C60.0146 67.128 54 73.1427 54 80.5631C54 87.9835 60.0146 93.9992 67.4348 93.9992C70.6995 93.9992 74.2571 92.7327 76.0192 90.4011L76.0197 90.4046ZM88.9748 86.9818C91.2244 88.5397 93.68 89.2966 96.0395 89.2966C98.2878 89.2966 100.612 88.131 100.612 86.1029C100.612 83.3947 95.5475 82.9731 92.3659 81.892C89.1834 80.8106 86.4423 78.5747 86.4423 74.9545C86.4423 69.4153 91.3782 67.1272 95.9848 67.1272C98.904 67.1272 101.916 68.0899 103.868 69.4689C104.541 69.9781 104.131 70.5633 104.131 70.5633L102.267 73.2253C102.058 73.525 101.623 73.7646 101.166 73.4594C99.9103 72.6294 98.5116 71.8296 95.9848 71.8296C92.857 71.8296 91.4811 73.128 91.4811 74.7365C91.4811 76.6661 93.6816 77.2729 96.2592 77.9307C100.751 79.141 105.651 80.5966 105.651 86.1029C105.651 90.9835 101.085 94 96.0395 94C92.2161 94 88.9605 92.9097 86.2301 90.9061C85.6616 90.337 86.0587 89.8084 86.0587 89.8084L87.9135 87.1603C88.2907 86.6647 88.7665 86.8377 88.9748 86.9818ZM130.924 90.4046C130.924 91.204 132.294 93.4507 133.973 93.4507H135.06C135.482 93.4507 135.828 93.1052 135.828 92.6838V68.7844H135.823C135.801 68.382 135.468 68.0594 135.06 68.0594H131.691C131.283 68.0594 130.95 68.382 130.928 68.7844H130.924V70.7266C128.859 68.1832 125.603 67.128 122.339 67.128C114.919 67.128 108.904 73.1427 108.904 80.5631C108.904 87.9835 114.919 93.9992 122.339 93.9992C125.603 93.9992 129.161 92.7327 130.923 90.4011L130.924 90.4046ZM122.352 89.2966C117.633 89.2966 113.807 85.387 113.807 80.5631C113.807 75.7401 117.633 71.8298 122.352 71.8298C127.071 71.8298 130.896 75.7401 130.896 80.5631C130.896 85.387 127.071 89.2966 122.352 89.2966ZM166.02 91.2259L166.019 78.8595C166.019 71.8881 161.621 67.1853 154.608 67.1853C151.26 67.1853 148.521 69.1211 147.552 70.7838V70.7607L147.546 70.7797C147.544 69.0968 146.179 68.1169 144.497 68.1169H143.415C142.992 68.1169 142.647 68.4624 142.647 68.8842V90.4643V90.468V92.7851H142.652C142.674 93.1875 143.007 93.5105 143.415 93.5105H146.784C146.836 93.5105 146.887 93.5043 146.936 93.4951C146.958 93.4904 146.979 93.4816 147 93.4753C147.026 93.4679 147.052 93.4618 147.075 93.4518C147.106 93.4395 147.133 93.4225 147.161 93.407C147.174 93.3988 147.189 93.3928 147.202 93.3847C147.235 93.3628 147.266 93.3366 147.296 93.3098C147.301 93.3047 147.307 93.3014 147.312 93.2967C147.346 93.2646 147.376 93.2294 147.403 93.1918L147.403 93.1913C147.488 93.0754 147.539 92.9361 147.547 92.7851H147.552V78.6676C147.552 74.9234 150.587 71.8881 154.331 71.8881C158.076 71.8881 161.111 74.9234 161.111 78.6676L161.114 90.4684L161.115 90.4643C161.115 90.4745 161.117 90.4856 161.117 90.4964V92.7851H161.121C161.144 93.1875 161.477 93.5105 161.884 93.5105H165.254C165.306 93.5105 165.356 93.5043 165.405 93.4951C165.425 93.4906 165.443 93.4827 165.462 93.4779C165.491 93.4698 165.519 93.4626 165.545 93.4518C165.573 93.4401 165.598 93.4246 165.624 93.41C165.64 93.4012 165.656 93.3945 165.672 93.3847C165.703 93.3636 165.732 93.339 165.76 93.3149C165.767 93.3086 165.775 93.303 165.781 93.2965C165.814 93.2658 165.841 93.2325 165.868 93.1977C165.869 93.1946 165.872 93.1926 165.874 93.1901C165.957 93.0754 166.007 92.9371 166.016 92.7871C166.016 92.7863 166.017 92.7851 166.017 92.7851H166.021V91.2265L166.02 91.2259ZM192.301 90.4046C192.301 91.204 193.67 93.4507 195.349 93.4507H196.438C196.859 93.4507 197.205 93.1052 197.205 92.6838V68.7844H197.201C197.178 68.382 196.845 68.0594 196.438 68.0594H193.068C192.659 68.0594 192.328 68.382 192.305 68.7844H192.301V70.7266C190.235 68.1832 186.981 67.128 183.716 67.128C176.296 67.128 170.281 73.1427 170.281 80.5631C170.281 87.9835 176.296 93.9992 183.716 93.9992C186.981 93.9992 190.538 92.7327 192.299 90.4011L192.301 90.4046ZM183.73 89.2966C179.011 89.2966 175.185 85.387 175.185 80.5631C175.185 75.7401 179.011 71.8298 183.73 71.8298C188.447 71.8298 192.273 75.7401 192.273 80.5631C192.273 85.387 188.447 89.2966 183.73 89.2966Z" fill="#283343"/>
<path d="M141.116 26.4917C134.613 26.4917 129.342 31.7629 129.342 38.2655C129.342 44.7685 134.613 50.0401 141.116 50.0401C147.618 50.0401 152.89 44.7685 152.89 38.2655C152.89 31.7629 147.618 26.4917 141.116 26.4917ZM110.526 26.4925C104.023 26.4925 98.7515 31.7629 98.7515 38.2661C98.7515 44.7685 104.023 50.0401 110.526 50.0401C117.028 50.0401 122.3 44.7685 122.3 38.2661C122.3 31.7629 117.028 26.4925 110.526 26.4925ZM137.594 11.7738C137.594 18.2765 132.323 23.5489 125.821 23.5489C119.318 23.5489 114.047 18.2765 114.047 11.7738C114.047 5.27161 119.318 0 125.821 0C132.323 0 137.594 5.27161 137.594 11.7738Z" fill="url(#paint0_radial_1_5)"/>
<defs>
<radialGradient id="paint0_radial_1_5" cx="0" cy="0" r="1" gradientUnits="userSpaceOnUse" gradientTransform="translate(2805.66 2734.8) scale(3587.37 3315.83)">
<stop stop-color="#FFB900"/>
<stop offset="0.6" stop-color="#F95D8F"/>
<stop offset="0.9991" stop-color="#F95353"/>
</radialGradient>
</defs>
</svg>
