<svg width="250" height="113" viewBox="0 0 250 113" fill="none" xmlns="http://www.w3.org/2000/svg">
<path fill-rule="evenodd" clip-rule="evenodd" d="M83.0878 90.5033V81.992C83.0878 80.8737 83.787 79.9753 84.9449 79.9753H85.2653C86.4227 79.9753 87.1187 80.8747 87.1187 81.992V99.9107C87.1187 104.28 84.96 107.757 81.198 109.972C79.4747 110.993 77.5077 111.53 75.5046 111.525H74.7051C70.3346 111.525 66.8623 109.365 64.6438 105.605C63.6214 103.882 63.0849 101.914 63.0916 99.9107V99.1123C63.0916 94.7412 65.2513 91.2664 69.0102 89.0473C70.7331 88.0242 72.7013 87.4876 74.7051 87.4945H75.5046C78.4624 87.4945 80.9717 88.641 83.0878 90.5033ZM67.1219 99.5107C67.1219 102.667 68.6518 105.04 71.4176 106.554C72.536 107.166 73.7501 107.494 75.0261 107.494C78.1243 107.494 80.4224 106.033 82.0074 103.407C82.7445 102.186 83.0878 100.85 83.0878 99.4291C83.0878 96.6929 81.7926 94.5576 79.5875 92.9715C78.2507 92.0102 76.7458 91.528 75.1046 91.528C71.7276 91.528 69.2973 93.2342 67.8387 96.2648C67.3466 97.2895 67.1219 98.3772 67.1219 99.5107ZM101.102 87.4945H101.661C106.331 87.4945 109.883 89.7599 112.134 93.8366C113.034 95.4673 113.515 97.2474 113.515 99.1123V99.9107C113.515 104.28 111.361 107.762 107.593 109.973C105.849 110.996 103.922 111.525 101.901 111.525H101.102C96.7317 111.525 93.2584 109.365 91.0409 105.605C90.018 103.882 89.481 101.914 89.4871 99.9107V99.1123C89.4871 94.7407 91.6558 91.2773 95.4052 89.0483C97.1484 88.0126 99.0767 87.4945 101.102 87.4945ZM93.518 99.5107C93.518 102.575 95.0213 104.829 97.6092 106.414C98.8244 107.157 100.163 107.494 101.582 107.494C104.61 107.494 106.848 105.959 108.405 103.404C109.148 102.186 109.484 100.848 109.484 99.4291C109.484 96.58 108.112 94.4036 105.766 92.8264C104.48 91.9613 103.049 91.528 101.501 91.528C98.1242 91.528 95.6939 93.2342 94.2359 96.2648C93.7427 97.2895 93.518 98.3772 93.518 99.5107ZM130.272 91.85C129.663 91.5649 128.524 91.4703 127.867 91.4453C124.499 91.3184 122.062 93.215 120.633 96.1857C120.139 97.2105 119.914 98.2951 119.914 99.4291C119.914 102.881 121.727 105.299 124.808 106.772C125.934 107.31 127.388 107.412 128.618 107.412C129.7 107.412 131.229 106.75 132.189 106.293L132.356 106.214H133.101L133.183 106.231C134.1 106.422 134.792 107.003 134.792 107.989V108.388C134.792 110.842 130.307 111.404 128.595 111.524C122.556 111.941 118.039 108.625 116.318 102.864C116.018 101.864 115.884 100.87 115.884 99.828V99.0306C115.884 94.6595 118.053 91.1972 121.802 88.9703C123.545 87.9351 125.473 87.4149 127.498 87.4149H128.297C130.445 87.4149 132.424 88.0251 134.198 89.2366L134.343 89.3375L134.435 89.4894C134.627 89.8067 134.792 90.174 134.792 90.5516V90.9506C134.792 91.9795 134.022 92.533 133.093 92.7119L133.016 92.7255H132.778C132.176 92.7255 130.809 92.1028 130.272 91.85ZM143.346 94.5794C144.912 93.0116 146.483 91.4469 148.072 89.905C148.515 89.4749 150.191 87.6542 150.851 87.6542H151.573L151.656 87.6714C152.575 87.8623 153.264 88.4444 153.264 89.4327V89.8312C153.264 90.5053 152.474 91.2887 152.039 91.7501C151.113 92.7317 150.138 93.681 149.19 94.6423L144.32 99.5861C146.417 101.688 148.512 103.791 150.592 105.908C151.169 106.493 151.741 107.082 152.309 107.675C152.509 107.886 152.805 108.148 152.973 108.44C153.153 108.713 153.264 109.022 153.264 109.351V109.767L153.241 109.863C153.014 110.783 152.431 111.525 151.412 111.525H151.091C150.424 111.525 149.671 110.771 149.214 110.339C148.272 109.452 147.364 108.519 146.441 107.612L143.346 104.574V109.43C143.346 110.548 142.646 111.447 141.49 111.447H141.172C140.014 111.447 139.315 110.548 139.315 109.43V82.0701C139.315 80.9517 140.015 80.057 141.172 80.057H141.49C142.646 80.057 143.346 80.9517 143.346 82.0701V94.5794ZM193.584 87.6542H193.984C195.193 87.6542 196 88.4688 196 89.671C196 91.3397 194.405 91.7668 193.025 91.7668C191.214 91.7668 189.486 92.8628 188.238 94.092C186.682 95.626 186.001 97.5907 186.001 99.7505V109.509C186.001 110.627 185.302 111.525 184.144 111.525H183.826C182.667 111.525 181.969 110.628 181.969 109.509V99.1903C181.969 95.2281 183.898 91.9936 187.114 89.7251C189.034 88.37 191.233 87.6542 193.584 87.6542ZM164.935 106.992C166.402 107.505 168.075 107.432 169.579 107.169C170.349 106.842 172.318 105.983 173.042 106.109L173.155 106.128L173.259 106.179C173.701 106.394 174.123 106.697 174.348 107.147C174.876 108.201 174.623 109.262 173.586 109.86L173.242 110.059C169.418 112.266 165.351 111.96 161.54 109.899C159.718 108.914 158.324 107.452 157.295 105.669L157.055 105.252C154.6 101.002 154.932 96.5301 157.7 92.4877C158.656 91.0905 159.905 90.0112 161.365 89.1669L161.917 88.848C165.518 86.7694 169.377 86.9119 173.075 88.7362C175.064 89.7173 176.675 91.1795 177.785 93.1026L177.985 93.449C178.791 94.8463 177.746 96.0635 176.668 96.8958C175.416 97.8612 174.153 99.0233 172.953 100.058C170.279 102.368 167.608 104.682 164.935 106.992ZM161.473 104.561C164.465 101.997 167.457 99.4296 170.44 96.8541C171.459 95.975 172.577 95.0626 173.588 94.1383C172.777 93.1156 171.421 92.3785 170.27 91.939C167.945 91.0531 165.652 91.3506 163.52 92.5814C160.729 94.1929 159.54 96.759 159.645 99.9524C159.686 101.21 160.024 102.422 160.692 103.492C160.927 103.869 161.189 104.224 161.473 104.561ZM139.721 23.7889H151.615V35.9482H157.629C160.407 35.9482 163.263 35.4535 165.893 34.5624C167.186 34.1239 168.636 33.5143 169.911 32.747C168.232 30.5549 167.374 27.7871 167.123 25.0587C166.779 21.3472 167.528 16.5168 170.04 13.6121L171.29 12.166L172.78 13.364C176.531 16.3774 179.686 20.5888 180.242 25.3895C184.759 24.061 190.062 24.3752 194.043 26.6728L195.676 27.6154L194.817 29.2935C191.45 35.8644 184.41 37.9004 177.528 37.5399C167.23 63.1896 144.81 75.3327 117.626 75.3327C103.581 75.3327 90.696 70.0825 83.3583 57.6221L83.2382 57.4192L82.1692 55.2438C79.689 49.759 78.865 43.7504 79.4237 37.7465L79.5917 35.9482H89.7633V23.7889H101.657V11.8945H125.447V0H139.721V23.7889Z" fill="#364548"/>
<path fill-rule="evenodd" clip-rule="evenodd" d="M178.257 28.2875C179.054 22.089 174.416 17.2206 171.539 14.909C168.224 18.7416 167.709 28.7864 172.91 33.0154C170.007 35.5934 163.891 37.9301 157.629 37.9301H81.3988C80.7902 44.4672 81.9377 50.4873 84.5589 55.6397L85.4261 57.2262C85.9751 58.1575 86.5751 59.0577 87.2233 59.9229C90.3574 60.1242 93.247 60.1933 95.8906 60.1351H95.8916C101.087 60.0206 105.326 59.4068 108.538 58.2936C108.765 58.223 109.011 58.2435 109.223 58.3507C109.436 58.4579 109.598 58.6436 109.676 58.8683C109.754 59.093 109.741 59.3393 109.641 59.5549C109.54 59.7705 109.36 59.9387 109.138 60.0238C108.71 60.1725 108.265 60.3109 107.805 60.4425H107.804C105.274 61.165 102.561 61.6509 99.0616 61.8668C99.2697 61.8704 98.8452 61.898 98.8442 61.898C98.725 61.9058 98.5752 61.9229 98.4556 61.9292C97.0781 62.0067 95.5915 62.0228 94.0715 62.0228C92.409 62.0228 90.772 61.9916 88.9415 61.898L88.8946 61.9292C95.2461 69.0682 105.177 73.3498 117.626 73.3498C143.972 73.3498 166.319 61.6707 176.215 35.4509C183.236 36.1714 189.983 34.3809 193.052 28.3895C188.163 25.5685 181.877 26.4679 178.257 28.2875Z" fill="#22A0C8"/>
<path fill-rule="evenodd" clip-rule="evenodd" d="M178.257 28.2875C179.054 22.089 174.416 17.2206 171.539 14.909C168.224 18.7416 167.709 28.7864 172.91 33.0154C170.007 35.5934 163.891 37.9301 157.629 37.9301H85.9129C85.6019 47.9415 89.317 55.5408 95.89 60.1351H95.8916C101.087 60.0206 105.326 59.4068 108.538 58.2936C108.765 58.223 109.011 58.2435 109.223 58.3507C109.436 58.4579 109.598 58.6436 109.676 58.8683C109.754 59.093 109.741 59.3393 109.641 59.5549C109.54 59.7705 109.36 59.9387 109.138 60.0238C108.71 60.1725 108.265 60.3109 107.805 60.4425H107.804C105.274 61.165 102.328 61.7133 98.8285 61.9292C98.8275 61.9292 98.7437 61.8486 98.7427 61.8486C107.709 66.448 120.71 66.4314 135.616 60.7057C152.329 54.2846 167.882 42.052 178.734 28.0607C178.57 28.1346 178.411 28.21 178.257 28.2875Z" fill="#37B1D9"/>
<path fill-rule="evenodd" clip-rule="evenodd" d="M81.5419 45.8727C82.0152 49.3746 83.04 52.6533 84.5589 55.6396L85.4261 57.2262C85.975 58.1575 86.575 59.0577 87.2233 59.9228C90.3579 60.1241 93.2475 60.1933 95.8916 60.135C101.087 60.0206 105.326 59.4068 108.538 58.2936C108.765 58.223 109.011 58.2434 109.223 58.3507C109.436 58.4579 109.598 58.6435 109.676 58.8683C109.754 59.093 109.741 59.3392 109.641 59.5549C109.54 59.7705 109.36 59.9386 109.138 60.0237C108.71 60.1725 108.265 60.3109 107.805 60.4425H107.804C105.274 61.165 102.344 61.6821 98.8441 61.8985C98.724 61.9057 98.5143 61.9073 98.3931 61.9141C97.0167 61.9911 95.5452 62.0384 94.0247 62.0384C92.3627 62.0384 90.6627 62.0067 88.8333 61.9136C95.1847 69.0525 105.177 73.3497 117.626 73.3497C140.181 73.3497 159.805 64.7886 171.194 45.8727H81.5419Z" fill="#1B81A5"/>
<path fill-rule="evenodd" clip-rule="evenodd" d="M86.5991 45.8727C87.9474 52.0213 91.1876 56.848 95.8916 60.135C101.087 60.0206 105.326 59.4068 108.538 58.2936C108.765 58.223 109.011 58.2434 109.223 58.3507C109.436 58.4579 109.598 58.6435 109.676 58.8683C109.754 59.093 109.741 59.3392 109.641 59.5549C109.54 59.7705 109.36 59.9386 109.138 60.0237C108.71 60.1725 108.265 60.3109 107.805 60.4425H107.804C105.274 61.165 102.282 61.6821 98.7817 61.8985C107.748 66.4969 120.711 66.4308 135.616 60.7057C144.633 57.2413 153.311 52.0842 161.096 45.8727H86.5991Z" fill="#1D91B4"/>
<path fill-rule="evenodd" clip-rule="evenodd" d="M91.7452 25.7713H102.054V36.0803H91.7452V25.7713ZM92.604 26.6307H93.4176V35.2215H92.604V26.6307ZM94.1334 26.6307H94.9797V35.2215H94.1339L94.1334 26.6307ZM95.6949 26.6307H96.5413V35.2215H95.6949V26.6307ZM97.2576 26.6307H98.1034V35.2215H97.2576V26.6307ZM98.8197 26.6307H99.6655V35.2215H98.8197V26.6307ZM100.381 26.6307H101.195V35.2215H100.381V26.6307ZM103.64 13.8769H113.949V24.1853H103.639L103.64 13.8769ZM104.499 14.7362H105.312V23.3265H104.499V14.7362ZM106.028 14.7362H106.874V23.3265H106.029L106.028 14.7362ZM107.59 14.7362H108.436V23.3265H107.59V14.7362ZM109.152 14.7362H109.998V23.3265H109.152V14.7362ZM110.714 14.7362H111.56V23.3265H110.714V14.7362ZM112.276 14.7362H113.09V23.3265H112.276V14.7362Z" fill="#23A3C2"/>
<path fill-rule="evenodd" clip-rule="evenodd" d="M103.64 25.7713H113.949V36.0803H103.639L103.64 25.7713ZM104.499 26.6307H105.312V35.2215H104.499V26.6307ZM106.028 26.6307H106.874V35.2215H106.029L106.028 26.6307ZM107.59 26.6307H108.436V35.2215H107.59V26.6307ZM109.152 26.6307H109.998V35.2215H109.152V26.6307ZM110.714 26.6307H111.561V35.2215H110.714V26.6307ZM112.276 26.6307H113.09V35.2215H112.276V26.6307Z" fill="#34BBDE"/>
<path fill-rule="evenodd" clip-rule="evenodd" d="M115.535 25.7713H125.844V36.0803H115.535V25.7713ZM116.394 26.6307H117.207V35.2215H116.394V26.6307ZM117.923 26.6307H118.769V35.2215H117.923V26.6307ZM119.485 26.6307H120.331V35.2215H119.485V26.6307ZM121.047 26.6307H121.893V35.2215H121.047V26.6307ZM122.609 26.6307H123.456V35.2215H122.609V26.6307ZM124.171 26.6307H124.984V35.2215H124.171V26.6307Z" fill="#23A3C2"/>
<path fill-rule="evenodd" clip-rule="evenodd" d="M115.535 13.8769H125.844V24.1853H115.535V13.8769ZM116.394 14.7362H117.207V23.3265H116.394V14.7362ZM117.923 14.7362H118.769V23.3265H117.923V14.7362ZM119.485 14.7362H120.331V23.3265H119.485V14.7362ZM121.047 14.7362H121.893V23.3265H121.047V14.7362ZM122.609 14.7362H123.456V23.3265H122.609V14.7362ZM124.171 14.7362H124.984V23.3265H124.171V14.7362ZM127.429 25.7713H137.738V36.0803H127.429V25.7713ZM128.289 26.6307H129.102V35.2215H128.289V26.6307ZM129.818 26.6307H130.664V35.2215H129.818V26.6307ZM131.379 26.6307H132.225V35.2215H131.379V26.6307ZM132.942 26.6307H133.788V35.2215H132.942V26.6307ZM134.504 26.6307H135.35V35.2215H134.504V26.6307ZM136.066 26.6307H136.879V35.2215H136.066V26.6307Z" fill="#34BBDE"/>
<path fill-rule="evenodd" clip-rule="evenodd" d="M127.429 13.8769H137.738V24.1853H127.429V13.8769ZM128.288 14.7362H129.102V23.3265H128.288V14.7362ZM129.818 14.7362H130.664V23.3265H129.818V14.7362ZM131.379 14.7362H132.225V23.3265H131.379V14.7362ZM132.942 14.7362H133.788V23.3265H132.942V14.7362ZM134.504 14.7362H135.35V23.3265H134.504V14.7362ZM136.066 14.7362H136.879V23.3265H136.066V14.7362Z" fill="#23A3C2"/>
<path fill-rule="evenodd" clip-rule="evenodd" d="M127.429 1.98189H137.738V12.2919H127.429V1.98189ZM128.288 2.84071H129.102V11.432H128.288V2.84071ZM129.818 2.84071H130.664V11.432H129.818V2.84071ZM131.379 2.84071H132.225V11.432H131.379V2.84071ZM132.942 2.84071H133.788V11.432H132.942V2.84071ZM134.504 2.84071H135.35V11.432H134.504V2.84071ZM136.066 2.84071H136.879V11.432H136.066V2.84071Z" fill="#34BBDE"/>
<path fill-rule="evenodd" clip-rule="evenodd" d="M139.324 25.7713H149.633V36.0803H139.324V25.7713ZM140.182 26.6307H140.996V35.2215H140.182V26.6307H140.182ZM141.711 26.6307H142.558V35.2215H141.712L141.711 26.6307ZM143.274 26.6307H144.12V35.2215H143.274V26.6307ZM144.835 26.6307H145.682V35.2215H144.835V26.6307ZM146.398 26.6307H147.244V35.2215H146.398V26.6307ZM147.96 26.6307H148.773V35.2215H147.96V26.6307Z" fill="#23A3C2"/>
<path fill-rule="evenodd" clip-rule="evenodd" d="M113.304 52.7943C113.68 52.7892 114.054 52.8591 114.404 52.9998C114.753 53.1405 115.071 53.3493 115.34 53.6139C115.608 53.8786 115.821 54.1939 115.966 54.5415C116.111 54.8891 116.186 55.2621 116.186 55.6389C116.186 56.0156 116.111 56.3886 115.966 56.7362C115.82 57.0838 115.607 57.399 115.339 57.6635C115.071 57.9281 114.752 58.1367 114.403 58.2773C114.053 58.4179 113.679 58.4876 113.303 58.4824C112.555 58.4722 111.841 58.168 111.316 57.6356C110.791 57.1032 110.497 56.3855 110.497 55.6378C110.497 54.8901 110.792 54.1725 111.317 53.6404C111.842 53.1082 112.556 52.8042 113.304 52.7943Z" fill="#D3ECEC"/>
<path fill-rule="evenodd" clip-rule="evenodd" d="M113.304 53.6011C113.564 53.6011 113.812 53.65 114.041 53.7389C113.883 53.8306 113.759 53.9718 113.69 54.1406C113.62 54.3094 113.608 54.4964 113.655 54.6728C113.702 54.8492 113.806 55.0052 113.951 55.1166C114.096 55.228 114.273 55.2886 114.456 55.2891C114.771 55.2891 115.044 55.1148 115.185 54.8568C115.353 55.2603 115.386 55.7071 115.28 56.131C115.174 56.5549 114.935 56.9336 114.597 57.211C114.26 57.4884 113.842 57.6499 113.405 57.6716C112.969 57.6933 112.537 57.574 112.174 57.3315C111.81 57.0889 111.534 56.7359 111.387 56.3246C111.24 55.9132 111.229 55.4654 111.355 55.0472C111.482 54.629 111.74 54.2627 112.091 54.0023C112.441 53.7419 112.867 53.6012 113.304 53.6011ZM63 46.9006H195.296C192.416 46.1703 186.183 45.183 187.21 41.4075C181.972 47.4687 169.341 45.66 166.153 42.6715C162.603 47.8203 141.936 45.8629 140.495 41.8517C136.044 47.0749 122.253 47.0749 117.803 41.8517C116.36 45.8629 95.6939 47.8203 92.1437 42.671C88.956 45.66 76.325 47.4687 71.0867 41.408C72.1146 45.183 65.8813 46.1698 63 46.9006Z" fill="#364548"/>
<path fill-rule="evenodd" clip-rule="evenodd" d="M120.863 73.2884C113.82 69.9462 109.955 65.4024 107.804 60.443C105.187 61.1895 102.043 61.667 98.3885 61.8719C97.0121 61.9489 95.5639 61.9885 94.045 61.9885C92.293 61.9885 90.4469 61.9364 88.5087 61.834C94.9678 68.2894 102.914 73.2592 117.626 73.3497C118.712 73.3497 119.79 73.3289 120.863 73.2884Z" fill="#BDD9D7"/>
<path fill-rule="evenodd" clip-rule="evenodd" d="M110.42 65.0196C109.445 63.6967 108.5 62.0342 107.805 60.442C105.189 61.1895 102.043 61.667 98.3885 61.8725C100.899 63.2348 104.488 64.4973 110.42 65.0196Z" fill="#D3ECEC"/>
</svg>
