<svg width="250" height="94" viewBox="0 0 250 94" fill="none" xmlns="http://www.w3.org/2000/svg">
<path d="M30.7897 6H33.0128C40.7309 6.16778 48.3231 9.2718 53.7761 14.7667C51.7627 16.8221 49.7074 18.7936 47.7359 20.8489C44.6738 18.0805 40.9826 15.9412 36.9557 15.1862C30.9994 13.9278 24.5816 15.0604 19.5901 18.458C14.1371 22.0234 10.4458 28.0637 9.64882 34.5234C8.76796 40.8992 10.5716 47.6105 14.7243 52.5602C18.7092 57.384 24.7914 60.4041 31.0833 60.6138C36.9557 60.9494 43.0799 59.1457 47.3584 55.035C50.7141 52.1407 52.2661 47.7364 52.7694 43.4579C45.8064 43.4579 38.8433 43.4998 31.8803 43.4579V34.817H61.2006C62.7106 44.0871 60.5294 54.5316 53.4825 61.1591C48.7845 65.8571 42.2829 68.6255 35.6554 69.1708C29.2377 69.8 22.6102 68.5836 16.9055 65.4796C10.0683 61.8303 4.61529 55.6642 1.93074 48.4075C-0.586025 41.7381 -0.627971 34.1878 1.72101 27.4764C3.86026 21.3523 7.97098 15.9412 13.2562 12.1661C18.3317 8.43287 24.4977 6.37751 30.7897 6Z" fill="#3780FF"/>
<path d="M198.994 8.1812H207.97V68.0802C204.992 68.0802 201.972 68.1222 198.994 68.0383C199.035 48.1139 198.994 28.1475 198.994 8.1812Z" fill="#38B137"/>
<path d="M81.1669 28.9445C86.7038 27.8959 92.7021 29.0704 97.2742 32.3841C101.427 35.3203 104.321 39.9344 105.202 44.9679C106.335 50.7984 104.908 57.1742 101.133 61.7883C97.0645 66.9477 90.3951 69.7161 83.8934 69.2967C77.9371 68.9611 72.1485 65.9829 68.6251 61.1172C64.6402 55.7481 63.6754 48.3656 65.8566 42.0737C68.0378 35.3203 74.2039 30.161 81.1669 28.9445ZM82.4253 36.9143C80.1602 37.5015 78.0629 38.8019 76.5529 40.6475C72.4841 45.5132 72.7358 53.441 77.224 57.9712C79.7827 60.5719 83.6418 61.7883 87.2072 61.0752C90.5209 60.488 93.4152 58.2648 95.0092 55.3286C97.7776 50.337 96.9806 43.4579 92.7441 39.5569C90.0176 37.0401 86.0327 35.9915 82.4253 36.9143Z" fill="#FA3913"/>
<path d="M125.63 28.9445C131.964 27.7281 138.885 29.4898 143.625 33.9361C151.343 40.8572 152.182 53.8186 145.596 61.7883C141.611 66.8218 135.152 69.5903 128.776 69.2967C122.694 69.1289 116.695 66.1088 113.088 61.1172C109.019 55.6222 108.138 48.0719 110.445 41.6542C112.752 35.1106 118.793 30.119 125.63 28.9445ZM126.888 36.9143C124.623 37.5015 122.526 38.8019 121.016 40.6055C116.989 45.3874 117.157 53.1894 121.477 57.7615C124.036 60.488 128.021 61.8303 131.712 61.0752C134.984 60.446 137.92 58.2648 139.514 55.3286C142.24 50.2951 141.443 43.4159 137.165 39.5149C134.438 36.9982 130.454 35.9915 126.888 36.9143Z" fill="#FCBD06"/>
<path d="M163.339 31.3774C168.163 28.3573 174.581 27.5183 179.782 30.119C181.418 30.8321 182.76 32.0485 184.061 33.265C184.103 32.1324 184.061 30.9579 184.103 29.7834C186.913 29.8254 189.723 29.7834 192.576 29.8254V66.8218C192.534 72.4007 191.108 78.3151 187.081 82.3838C182.676 86.8721 175.923 88.2563 169.841 87.3335C163.339 86.3687 157.677 81.6288 155.16 75.6305C157.677 74.4141 160.319 73.4493 162.92 72.3168C164.388 75.7564 167.366 78.6926 171.099 79.3637C174.833 80.0349 179.153 79.112 181.586 76.008C184.187 72.8201 184.187 68.4577 184.061 64.5568C182.131 66.4443 179.908 68.1222 177.224 68.7514C171.393 70.3873 164.975 68.3738 160.487 64.4309C155.957 60.488 153.272 54.4058 153.524 48.3656C153.65 41.5283 157.509 34.9428 163.339 31.3774ZM172.022 36.7465C169.463 37.1659 167.073 38.5921 165.437 40.5636C161.494 45.2615 161.494 52.7699 165.479 57.384C167.744 60.1105 171.393 61.6205 174.916 61.243C178.23 60.9074 181.292 58.8101 182.928 55.9159C185.697 51.0082 185.235 44.3387 181.502 40.0602C179.195 37.4176 175.504 36.1173 172.022 36.7465Z" fill="#3780FF"/>
<path d="M218.75 33.5166C223.784 28.8187 231.544 27.2247 238.003 29.6996C244.128 32.0066 248.029 37.8371 250 43.8354C240.898 47.6105 231.837 51.3437 222.735 55.1189C223.993 57.5098 225.923 59.691 228.524 60.5719C232.173 61.8722 236.535 61.4108 239.597 58.9779C240.814 58.0551 241.779 56.8387 242.701 55.6642C245.008 57.2162 247.315 58.7263 249.622 60.2783C246.351 65.186 240.856 68.6255 234.941 69.1708C228.398 69.9678 221.435 67.451 217.198 62.3336C210.235 54.28 210.906 40.7733 218.75 33.5166ZM223.238 41.2767C221.812 43.332 221.225 45.8488 221.267 48.3236C227.349 45.8069 233.431 43.2901 239.513 40.7314C238.507 38.3824 236.074 36.9562 233.599 36.5787C229.614 35.8656 225.462 38.0049 223.238 41.2767Z" fill="#FA3913"/>
</svg>
