<svg width="250" height="94" viewBox="0 0 250 94" fill="none" xmlns="http://www.w3.org/2000/svg">
<path d="M98.2628 38.5739H105.126V73.4989C105.126 82.708 101.043 89.0501 91.5732 89.0501C88.7931 89.137 86.013 88.6157 83.3198 87.7469V81.0573C85.5786 81.9261 88.0112 82.3605 90.4438 82.3605C96.2646 82.3605 98.2628 78.8853 98.2628 73.8464V38.5739Z" fill="#20385B"/>
<path d="M117.723 35.8806C120.243 35.8806 122.328 37.9657 122.328 40.4852C122.328 43.0047 120.243 45.0897 117.723 45.0897C115.204 45.0897 113.119 43.0047 113.119 40.4852C112.945 38.1395 114.77 36.0544 117.115 35.8806C117.289 35.8806 117.55 35.8806 117.723 35.8806ZM114.335 50.5631H120.938V88.7894H114.335V50.5631Z" fill="#20385B"/>
<path d="M137.271 88.7895H130.842V50.5631H137.271V57.3396C139.53 52.8219 143.266 49.6074 150.824 50.0418V56.4708C142.397 55.602 137.271 58.1215 137.271 66.288V88.7895Z" fill="#20385B"/>
<path d="M181.579 81.9261C179.146 86.965 174.542 89.5714 168.634 89.5714C158.469 89.5714 153.344 80.9704 153.344 69.6763C153.344 58.9034 158.73 49.7812 169.416 49.7812C174.976 49.7812 179.32 52.3006 181.579 57.2527V50.5631H188.182V88.7895H181.579V81.9261ZM170.459 83.403C176.366 83.403 181.666 79.6672 181.666 71.1532V68.1124C181.666 59.5984 176.801 55.8626 171.24 55.8626C163.856 55.8626 160.033 60.7278 160.033 69.5894C159.946 78.8853 163.682 83.403 170.459 83.403Z" fill="#20385B"/>
<path d="M63.7722 30.7549H33.7123C33.7123 38.2264 39.7938 44.3079 47.2653 44.3079H52.8255V49.6074C52.8255 57.079 58.907 63.1604 66.3785 63.1604V33.3612C66.3785 31.8843 65.1622 30.7549 63.7722 30.7549Z" fill="#0082FF"/>
<path d="M48.916 45.6979H18.8561C18.8561 53.1694 24.9376 59.2509 32.4091 59.2509H37.9693V64.6374C37.9693 72.1089 44.0508 78.1903 51.5223 78.1903V48.3911C51.5223 46.9142 50.306 45.6979 48.916 45.6979Z" fill="url(#paint0_linear_1_5)"/>
<path d="M34.0598 60.6409H4C4 68.1125 10.0815 74.1939 17.553 74.1939H23.0263V79.4935C23.0263 86.965 29.1078 93.0465 36.5793 93.0465V63.1604C36.6662 61.8572 35.4499 60.6409 34.0598 60.6409Z" fill="url(#paint1_linear_1_5)"/>
<path d="M175.845 13.8136C175.845 10.3385 173.586 8.77469 169.416 7.73216C166.81 7.03713 166.202 6.51586 166.202 5.64708C166.202 4.60454 167.157 4.08327 168.895 4.08327C170.98 4.17015 173.065 4.69142 174.976 5.64708V1.30317C173.152 0.434391 171.067 0 169.068 0C164.464 0 161.944 2.17196 161.944 5.73396C161.944 9.12221 164.203 10.8598 168.026 11.7285C170.719 12.3367 171.501 12.7711 171.501 13.9005C171.501 14.7693 170.893 15.4643 168.895 15.4643C166.462 15.3774 164.03 14.6824 161.858 13.4661V18.0707C164.03 19.1132 166.375 19.7213 168.808 19.7213C173.499 19.7213 175.845 17.3756 175.845 13.8136Z" fill="#0052CC"/>
<path d="M228.319 0.347546V19.4607H232.403V4.86521L234.14 8.68785L239.874 19.3739H245V0.260666H240.917V12.5974L239.353 9.03536L234.748 0.260666H228.319V0.347546Z" fill="#0052CC"/>
<path d="M202.517 0.347504H198.086V19.4607H202.517V0.347504Z" fill="#0052CC"/>
<path d="M127.454 0.347504V19.4607H136.576L137.966 15.2905H131.885V0.347504H127.454Z" fill="#0052CC"/>
<path d="M109.383 0.347504V4.51765H114.335V19.4607H118.766V4.51765H124.066V0.347504H109.383Z" fill="#0052CC"/>
<path d="M102.954 0.347504H97.1334L90.4438 19.4607H95.5696L96.5252 16.2462C97.6546 16.5937 98.8709 16.7675 100.087 16.7675C101.304 16.7675 102.52 16.5937 103.649 16.2462L104.605 19.4607H109.731L102.954 0.347504ZM100 12.7711C99.1316 12.7711 98.3497 12.6842 97.5678 12.4236L100 4.08326L102.433 12.4236C101.651 12.6842 100.869 12.7711 100 12.7711Z" fill="#0052CC"/>
<path d="M152.214 0.347504H146.393L139.704 19.4607H144.829L145.785 16.2462C146.915 16.5937 148.131 16.7675 149.347 16.7675C150.563 16.7675 151.78 16.5937 152.909 16.2462L153.865 19.4607H158.991L152.214 0.347504ZM149.347 12.7711C148.478 12.7711 147.696 12.6842 146.915 12.4236L149.347 4.08326L151.78 12.4236C150.998 12.6842 150.129 12.7711 149.347 12.7711Z" fill="#0052CC"/>
<path d="M218.502 0.347504H212.681L205.992 19.4607H211.117L212.073 16.2462C213.203 16.5937 214.419 16.7675 215.635 16.7675C216.851 16.7675 218.068 16.5937 219.197 16.2462L220.153 19.4607H225.279L218.502 0.347504ZM215.548 12.7711C214.679 12.7711 213.898 12.6842 213.116 12.4236L215.548 4.08326L217.981 12.4236C217.199 12.6842 216.417 12.7711 215.548 12.7711Z" fill="#0052CC"/>
<path d="M193.481 13.8136C193.481 10.3385 191.222 8.77469 187.052 7.73216C184.446 7.03713 183.838 6.51586 183.838 5.64708C183.838 4.60454 184.793 4.08327 186.444 4.08327C188.529 4.17015 190.614 4.69142 192.526 5.64708V1.30317C190.614 0.434391 188.616 0 186.531 0C181.926 0 179.407 2.17196 179.407 5.73396C179.407 9.12221 181.666 10.8598 185.488 11.7285C188.182 12.3367 188.964 12.7711 188.964 13.9005C188.964 14.7693 188.355 15.4643 186.357 15.4643C183.925 15.3774 181.492 14.6824 179.32 13.4661V18.0707C181.492 19.1132 183.838 19.7213 186.27 19.7213C191.222 19.7213 193.481 17.3756 193.481 13.8136Z" fill="#0052CC"/>
<defs>
<linearGradient id="paint0_linear_1_5" x1="50.8556" y1="45.7612" x2="38.0758" y2="58.9406" gradientUnits="userSpaceOnUse">
<stop offset="0.18" stop-color="#0050D3"/>
<stop offset="1" stop-color="#0082FF"/>
</linearGradient>
<linearGradient id="paint1_linear_1_5" x1="36.8377" y1="60.8124" x2="22.0597" y2="75.1908" gradientUnits="userSpaceOnUse">
<stop offset="0.18" stop-color="#0050D3"/>
<stop offset="1" stop-color="#0082FF"/>
</linearGradient>
</defs>
</svg>
