<svg width="250" height="94" viewBox="0 0 250 94" fill="none" xmlns="http://www.w3.org/2000/svg">
<path d="M93.7113 46.1257C93.7113 49.637 93.0721 52.7156 91.793 55.3584C90.5103 58.0018 88.6716 60.0384 86.2718 61.4636C83.8728 62.8883 81.1102 63.604 77.9822 63.604C74.9606 63.604 72.2754 62.9101 69.9218 61.5232C67.5665 60.1359 65.7483 58.1669 64.4607 55.6112C63.1722 53.0605 62.5273 50.1675 62.5273 46.9318C62.5273 43.4499 63.1793 40.3856 64.4834 37.732C65.7839 35.0816 67.6568 33.0462 70.0936 31.6278C72.5309 30.2088 75.3527 29.4994 78.5559 29.4994C81.4845 29.4994 84.1114 30.1977 86.4347 31.5922C88.7553 32.9866 90.5499 34.9507 91.8143 37.4788C93.0792 40.0072 93.7113 42.8905 93.7113 46.1257ZM89.6646 46.6318C89.6646 42.3381 88.6601 38.988 86.6528 36.5819C84.641 34.1767 81.8441 32.9723 78.2586 32.9723C76.0047 32.9723 73.9832 33.5443 72.198 34.6854C70.4127 35.8275 69.0281 37.448 68.0458 39.5502C67.0657 41.6531 66.5744 43.9965 66.5744 46.5864C66.5744 49.223 67.0462 51.5744 67.9902 53.6364C68.9333 55.6985 70.2765 57.2923 72.0244 58.4201C73.774 59.5453 75.7586 60.1119 77.9817 60.1119C81.63 60.1119 84.4901 58.9151 86.5602 56.5232C88.6302 54.1296 89.6646 50.8315 89.6646 46.6318ZM110.292 31.4773C109.554 31.0612 108.721 30.856 107.783 30.856C105.147 30.856 103.828 32.5206 103.828 35.8489V39.4807H109.347V42.6755H103.828V63.0285H100.056V42.675H96.055V39.4803H100.056V35.6633C100.056 33.2688 100.762 31.3376 102.171 29.8679C103.582 28.3947 105.378 27.659 107.555 27.659C108.705 27.659 109.614 27.7974 110.291 28.0751V31.4782L110.292 31.4773Z" fill="#C75B12"/>
<path d="M123.289 31.4773C122.553 31.0612 121.718 30.856 120.782 30.856C118.146 30.856 116.827 32.5206 116.827 35.8489V39.4807H122.346V42.6755H116.827V63.0285H113.054V42.675H109.053V39.4803H113.054V35.6633C113.054 33.2688 113.759 31.3376 115.17 29.8679C116.581 28.3947 118.376 27.659 120.553 27.659C121.704 27.659 122.613 27.7974 123.289 28.0751L123.289 31.4773ZM130.244 31.0403C130.244 31.7462 129.999 32.3323 129.508 32.7979C129.017 33.2665 128.436 33.4984 127.761 33.4984C127.071 33.4984 126.487 33.275 126.013 32.8215C125.538 32.3693 125.3 31.7737 125.3 31.0394C125.3 30.3798 125.532 29.8087 126 29.3267C126.47 28.8416 127.054 28.6021 127.76 28.6021C128.463 28.6021 129.054 28.8367 129.531 29.3147C130.006 29.7887 130.244 30.3633 130.244 31.0403ZM129.601 63.0263H125.828V39.4776H129.601V63.0263ZM151.125 61.9478C149.301 63.0516 147.146 63.6035 144.662 63.6035C142.518 63.6035 140.589 63.1077 138.879 62.1214C137.168 61.1307 135.841 59.7322 134.889 57.9216C133.937 56.1137 133.464 54.0833 133.464 51.8294C133.464 47.9368 134.578 44.8083 136.809 42.4445C139.039 40.0856 142.012 38.903 145.72 38.903C147.776 38.903 149.592 39.3018 151.172 40.0998V43.9622C149.408 42.7365 147.538 42.1236 145.561 42.1236C143.123 42.1236 141.141 42.9955 139.616 44.7335C138.09 46.4747 137.326 48.7214 137.326 51.484C137.326 54.2306 138.052 56.3959 139.501 57.9924C140.949 59.5862 142.892 60.382 145.33 60.382C147.385 60.382 149.317 59.7091 151.126 58.3578L151.125 61.9478ZM174.298 52.1975H157.672C157.736 54.8506 158.435 56.8771 159.777 58.2804C161.118 59.681 162.976 60.3834 165.351 60.3834C168.019 60.3834 170.449 59.5253 172.644 57.8086V61.3287C170.59 62.8464 167.86 63.6035 164.456 63.6035C161.097 63.6035 158.478 62.5184 156.589 60.3491C154.705 58.1811 153.761 55.1786 153.761 51.3452C153.761 49.0156 154.234 46.8891 155.177 44.965C156.118 43.0413 157.421 41.5517 159.074 40.4924C160.731 39.4353 162.571 38.9035 164.592 38.9035C167.643 38.9035 170.023 39.896 171.733 41.8841C173.444 43.8674 174.298 46.6465 174.298 50.2196V52.1975ZM170.436 49.0001C170.405 46.8241 169.88 45.1332 168.859 43.9279C167.84 42.7245 166.403 42.1227 164.549 42.1227C162.801 42.1227 161.304 42.752 160.065 44.0081C158.821 45.2645 158.041 46.9291 157.72 48.9987L170.436 49.0001ZM202.994 53.6912C202.994 56.6656 201.929 59.0611 199.798 60.8783C197.668 62.6951 194.867 63.6026 191.404 63.6026C188.261 63.6026 185.761 63.004 183.905 61.8099V57.7619C186.131 59.5079 188.675 60.3825 191.539 60.3825C193.856 60.3825 195.7 59.8097 197.072 58.6689C198.446 57.5286 199.132 55.9829 199.132 54.0348C199.132 49.7287 196.063 47.574 189.933 47.574H187.196V44.3761H189.794C195.22 44.3761 197.935 42.3524 197.935 38.3044C197.935 34.5639 195.866 32.6946 191.725 32.6946C189.396 32.6946 187.211 33.4762 185.173 35.0397V31.3839C187.272 30.1274 189.77 29.4981 192.669 29.4981C195.399 29.4981 197.601 30.2204 199.281 31.6723C200.959 33.121 201.797 35.0197 201.797 37.3626C201.797 41.7026 199.605 44.4919 195.22 45.7354V45.8258C197.549 46.087 199.432 46.9282 200.857 48.356C202.282 49.7816 202.994 51.5606 202.994 53.6912ZM227.807 52.5656C227.807 54.6517 227.359 56.5437 226.462 58.2448C225.566 59.9454 224.329 61.266 222.746 62.2002C221.168 63.1366 219.398 63.6035 217.435 63.6035C214.139 63.6035 211.554 62.2776 209.672 59.6254C207.795 56.9745 206.857 53.2697 206.857 48.5163C206.857 44.7464 207.414 41.4141 208.525 38.5265C209.637 35.6357 211.211 33.4099 213.249 31.8472C215.289 30.281 217.641 29.5003 220.309 29.5003C222.579 29.5003 224.402 29.8141 225.784 30.4434V34.0089C224.082 33.1344 222.287 32.6982 220.401 32.6982C217.488 32.6982 215.156 34.0054 213.399 36.6202C211.643 39.2333 210.765 42.7178 210.765 47.0711H210.858C212.375 43.9573 214.883 42.4018 218.378 42.4018C221.228 42.4018 223.516 43.3329 225.232 45.1969C226.95 47.0573 227.807 49.5132 227.807 52.5656ZM223.944 53.0476C223.944 50.7461 223.379 48.9311 222.254 47.5963C221.127 46.2637 219.551 45.5992 217.528 45.5992C215.689 45.5992 214.141 46.245 212.882 47.5415C211.624 48.8336 210.998 50.4047 210.998 52.2425C210.998 54.5586 211.622 56.4952 212.871 58.0481C214.121 59.6063 215.697 60.3829 217.599 60.3829C219.483 60.3829 221.014 59.706 222.186 58.3476C223.358 56.9905 223.944 55.2236 223.944 53.0476ZM250 52.955C250 56.1614 248.939 58.7335 246.816 60.6843C244.693 62.6288 241.859 63.6008 238.317 63.6008C235.25 63.6008 232.974 63.1433 231.488 62.2233V58.2207C233.725 59.665 236.017 60.3843 238.363 60.3843C240.693 60.3843 242.57 59.7309 243.995 58.4277C245.424 57.1236 246.137 55.3771 246.137 53.1882C246.137 51.039 245.413 49.3579 243.975 48.1379C242.533 46.9202 240.441 46.3113 237.698 46.3113C235.504 46.3113 233.642 46.4012 232.108 46.5842L233.234 30.0504H248.482V33.4535H236.5L235.834 43.1353L238.869 43.0182C242.304 43.0182 245.018 43.8874 247.01 45.6197C249.003 47.3515 250 49.7985 250 52.955ZM45.8885 69.4278L45.8836 69.4251V23.7245L29.5096 19L0.073883 30.0526L0 30.0669L0.00356063 63.1117L10.0485 59.1803V32.2945L29.5096 27.6416L29.5069 67.1708L0.0200285 63.1117L29.5069 74.0001V74.0121L45.8836 69.4799V69.4278H45.8885Z" fill="#C75B12"/>
</svg>
