<svg width="250" height="94" viewBox="0 0 250 94" fill="none" xmlns="http://www.w3.org/2000/svg">
<path d="M250 14H0V79.4689H250V14Z" fill="#D40000"/>
<path d="M10.7064 23.968H46.8865V28.7059L17.7824 64.3323H47.5634V69.5009H10.0295V64.8245L39.1336 29.1981H10.7064V23.968Z" fill="white"/>
<path d="M68.5454 24.0295H75.6215L93.1578 69.5624H86.697L82.5129 57.8715H61.777L57.5314 69.5624H50.9476L68.5454 24.0295ZM72.0527 30.1211L63.6229 52.7645H80.5439L72.0527 30.1211Z" fill="white"/>
<path d="M99.8031 24.0295H115.74C120.477 24.0295 124.169 25.014 126.692 26.9215C129.276 28.8905 130.692 32.0285 130.507 35.2281C130.63 37.6279 129.953 39.966 128.538 41.8735C127.061 43.5963 124.969 44.7039 122.754 44.95C125.523 45.4423 128.046 46.8575 129.892 49.0111C131.676 51.2262 132.538 53.9951 132.414 56.764C132.599 60.3943 131.061 63.84 128.23 66.1166C125.461 68.3318 121.462 69.4393 116.293 69.4393H99.8031V24.0295ZM106.018 29.0751V42.7964H115.247C118.262 42.7964 120.539 42.2427 122.016 41.0736C123.554 39.843 124.415 37.874 124.231 35.905C124.354 33.936 123.554 32.0285 122.016 30.7364C120.539 29.6288 118.262 29.0135 115.247 29.0135H106.018V29.0751ZM106.018 47.7804V64.4553H115.986C119.308 64.4553 121.831 63.7785 123.431 62.4248C125.031 61.0711 125.831 58.9175 125.831 56.1486C125.831 53.3182 125.031 51.2262 123.431 49.8725C121.831 48.5188 119.37 47.842 115.986 47.842L106.018 47.7804Z" fill="white"/>
<path d="M142.444 24.0295H158.381C163.118 24.0295 166.749 25.014 169.333 26.9215C171.917 28.8905 173.333 32.0285 173.209 35.2281C173.333 37.6279 172.656 39.966 171.24 41.8735C169.764 43.5963 167.733 44.7039 165.457 44.95C168.225 45.4423 170.748 46.8575 172.594 49.0111C174.379 51.2262 175.24 53.9951 175.117 56.764C175.302 60.3943 173.763 63.84 170.933 66.1166C168.164 68.3318 164.164 69.4393 158.934 69.4393H142.444V24.0295ZM148.659 29.0751V42.7964H157.888C160.903 42.7964 163.18 42.2427 164.657 41.0736C166.195 39.843 167.056 37.874 166.872 35.905C166.995 33.936 166.195 32.0285 164.657 30.7364C163.18 29.6288 160.903 29.0135 157.888 29.0135H148.659V29.0751ZM148.659 47.7804V64.4553H158.627C161.949 64.4553 164.411 63.7785 166.072 62.4248C167.672 61.0711 168.472 58.9175 168.472 56.1486C168.472 53.3182 167.672 51.2262 166.072 49.8725C164.472 48.5188 162.011 47.842 158.627 47.842L148.659 47.7804Z" fill="white"/>
<path d="M203.113 23.968H209.943L220.773 40.3352L231.664 23.968H238.309L224.034 45.3192L240.032 69.5009H233.202L220.588 50.4263L207.913 69.5009H201.268L217.327 45.5038L203.113 23.968Z" fill="white"/>
<path d="M191.238 23.968H185.023V69.5009H191.238V23.968Z" fill="white"/>
</svg>
